# Blender v3.1.2 OBJ File: 'basic house 1.blend'
# www.blender.org
mtllib basic house 1 roof.mtl
o Cube.001_Cube.005
v -7.200000 3.527580 6.000000
v -7.200000 3.174835 -6.000000
v -7.200000 3.527580 -6.000000
v -4.572950 4.811869 0.000000
v 7.200000 3.527580 6.000000
v -7.200000 3.174835 6.000000
v 7.200000 3.527580 -6.000000
v 4.572950 4.811869 0.000000
v 7.200000 3.174835 6.000000
v 7.200000 3.174835 -6.000000
vt 0.375000 0.250000
vt 0.125000 0.750000
vt 0.625000 0.250000
vt 0.625000 0.500000
vt 0.375000 0.500000
vt 0.375000 0.750000
vt 0.125000 0.500000
vt 0.375000 0.500000
vt 0.375000 0.750000
vt 0.125000 0.750000
vt 0.375000 0.250000
vn -0.4392 0.8984 0.0000
vn 0.0000 0.9779 -0.2093
vn 0.0000 0.9779 0.2093
vn 0.0000 -1.0000 0.0000
vn 0.0000 0.0000 -1.0000
vn 0.4392 0.8984 0.0000
vn -1.0000 0.0000 0.0000
vn 1.0000 0.0000 0.0000
vn 0.0000 0.0000 1.0000
usemtl None
s off
f 3/1/1 1/2/1 4/3/1
f 3/1/2 4/3/2 8/4/2 7/5/2
f 8/4/3 4/3/3 1/2/3 5/6/3
f 2/7/4 10/8/4 9/9/4 6/10/4
f 3/1/5 7/5/5 10/8/5 2/11/5
f 7/5/6 8/4/6 5/6/6
f 1/2/7 3/1/7 2/11/7 6/10/7
f 7/5/8 5/6/8 9/9/8 10/8/8
f 5/6/9 1/2/9 6/10/9 9/9/9
