# Blender v3.1.2 OBJ File: 'basic house 1.blend'
# www.blender.org
mtllib basic house 1 full.mtl
o Cube_Cube.004
v -6.000000 0.000000 5.000000
v -6.000000 3.500000 5.000000
v -6.000000 0.000000 -5.000000
v -6.000000 3.500000 -5.000000
v 6.000000 0.000000 5.000000
v 6.000000 3.500000 5.000000
v 6.000000 0.000000 -5.000000
v 6.000000 3.500000 -5.000000
vt 0.375000 0.000000
vt 0.625000 0.000000
vt 0.625000 0.250000
vt 0.375000 0.250000
vt 0.625000 0.500000
vt 0.375000 0.500000
vt 0.625000 0.750000
vt 0.375000 0.750000
vt 0.625000 1.000000
vt 0.375000 1.000000
vt 0.125000 0.500000
vt 0.125000 0.750000
vt 0.875000 0.500000
vt 0.875000 0.750000
vn -1.0000 0.0000 0.0000
vn 0.0000 0.0000 -1.0000
vn 1.0000 0.0000 0.0000
vn 0.0000 0.0000 1.0000
vn 0.0000 -1.0000 0.0000
vn 0.0000 1.0000 0.0000
usemtl None
s off
f 1/1/1 2/2/1 4/3/1 3/4/1
f 3/4/2 4/3/2 8/5/2 7/6/2
f 7/6/3 8/5/3 6/7/3 5/8/3
f 5/8/4 6/7/4 2/9/4 1/10/4
f 3/11/5 7/6/5 5/8/5 1/12/5
f 8/5/6 4/13/6 2/14/6 6/7/6
o door_Cube.003
v 6.148680 2.000000 -0.500000
v 6.148680 0.000000 -0.500000
v 6.148680 2.000000 0.500000
v 6.148680 0.000000 0.500000
v 5.948680 2.000000 -0.500000
v 5.948680 0.000000 -0.500000
v 5.948680 2.000000 0.500000
v 5.948680 0.000000 0.500000
vt 0.625000 0.500000
vt 0.875000 0.500000
vt 0.875000 0.750000
vt 0.625000 0.750000
vt 0.375000 0.750000
vt 0.625000 1.000000
vt 0.375000 1.000000
vt 0.375000 0.000000
vt 0.625000 0.000000
vt 0.625000 0.250000
vt 0.375000 0.250000
vt 0.125000 0.500000
vt 0.375000 0.500000
vt 0.125000 0.750000
vn 0.0000 1.0000 0.0000
vn 0.0000 0.0000 1.0000
vn -1.0000 0.0000 0.0000
vn 0.0000 -1.0000 0.0000
vn 1.0000 0.0000 0.0000
vn 0.0000 0.0000 -1.0000
usemtl Material
s off
f 9/15/7 13/16/7 15/17/7 11/18/7
f 12/19/8 11/18/8 15/20/8 16/21/8
f 16/22/9 15/23/9 13/24/9 14/25/9
f 14/26/10 10/27/10 12/19/10 16/28/10
f 10/27/11 9/15/11 11/18/11 12/19/11
f 14/25/12 13/24/12 9/15/12 10/27/12
o Cube.001_Cube.005
v -7.200000 3.527580 6.000000
v -7.200000 3.174835 -6.000000
v -7.200000 3.527580 -6.000000
v -4.572950 4.811869 0.000000
v 7.200000 3.527580 6.000000
v -7.200000 3.174835 6.000000
v 7.200000 3.527580 -6.000000
v 4.572950 4.811869 0.000000
v 7.200000 3.174835 6.000000
v 7.200000 3.174835 -6.000000
vt 0.375000 0.250000
vt 0.125000 0.750000
vt 0.625000 0.250000
vt 0.625000 0.500000
vt 0.375000 0.500000
vt 0.375000 0.750000
vt 0.125000 0.500000
vt 0.375000 0.500000
vt 0.375000 0.750000
vt 0.125000 0.750000
vt 0.375000 0.250000
vn -0.4392 0.8984 0.0000
vn 0.0000 0.9779 -0.2093
vn 0.0000 0.9779 0.2093
vn 0.0000 -1.0000 0.0000
vn 0.0000 0.0000 -1.0000
vn 0.4392 0.8984 0.0000
vn -1.0000 0.0000 0.0000
vn 1.0000 0.0000 0.0000
vn 0.0000 0.0000 1.0000
usemtl None
s off
f 19/29/13 17/30/13 20/31/13
f 19/29/14 20/31/14 24/32/14 23/33/14
f 24/32/15 20/31/15 17/30/15 21/34/15
f 18/35/16 26/36/16 25/37/16 22/38/16
f 19/29/17 23/33/17 26/36/17 18/39/17
f 23/33/18 24/32/18 21/34/18
f 17/30/19 19/29/19 18/39/19 22/38/19
f 23/33/20 21/34/20 25/37/20 26/36/20
f 21/34/21 17/30/21 22/38/21 25/37/21
o window_Cube.006
v 6.148680 2.556699 -3.905729
v 6.148680 1.556699 -3.905729
v 6.148680 2.556699 -1.520542
v 6.148680 1.556699 -1.520542
v 5.948680 2.556699 -3.905729
v 5.948680 1.556699 -3.905729
v 5.948680 2.556699 -1.520542
v 5.948680 1.556699 -1.520542
v 6.148680 2.556699 1.550066
v 6.148680 1.556699 1.550066
v 6.148680 2.556699 3.935253
v 6.148680 1.556699 3.935253
v 5.948680 2.556699 1.550066
v 5.948680 1.556699 1.550066
v 5.948680 2.556699 3.935253
v 5.948680 1.556699 3.935253
v 0.908304 2.781699 4.923746
v 0.908304 1.331699 4.923746
v 3.308304 2.781699 4.923746
v 3.308304 1.331699 4.923746
v 0.908304 2.781699 5.123747
v 0.908304 1.331699 5.123747
v 3.308304 2.781699 5.123747
v 3.308304 1.331699 5.123747
v -3.308300 2.781699 -5.123750
v -3.308300 1.331699 -5.123750
v -0.908299 2.781699 -5.123750
v -0.908299 1.331699 -5.123750
v -3.308300 2.781699 -4.923750
v -3.308300 1.331699 -4.923750
v -0.908299 2.781699 -4.923750
v -0.908299 1.331699 -4.923750
v -5.980118 2.927668 0.968891
v -5.980118 2.127668 0.968891
v -5.980118 2.927668 1.668891
v -5.980118 2.127668 1.668891
v -6.180118 2.927668 0.968891
v -6.180118 2.127668 0.968891
v -6.180118 2.927668 1.668891
v -6.180118 2.127668 1.668891
vt 0.625000 0.500000
vt 0.875000 0.500000
vt 0.875000 0.750000
vt 0.625000 0.750000
vt 0.375000 0.750000
vt 0.625000 1.000000
vt 0.375000 1.000000
vt 0.375000 0.000000
vt 0.625000 0.000000
vt 0.625000 0.250000
vt 0.375000 0.250000
vt 0.125000 0.500000
vt 0.375000 0.500000
vt 0.125000 0.750000
vt 0.625000 0.500000
vt 0.875000 0.500000
vt 0.875000 0.750000
vt 0.625000 0.750000
vt 0.375000 0.750000
vt 0.625000 1.000000
vt 0.375000 1.000000
vt 0.375000 0.000000
vt 0.625000 0.000000
vt 0.625000 0.250000
vt 0.375000 0.250000
vt 0.125000 0.500000
vt 0.375000 0.500000
vt 0.125000 0.750000
vt 0.625000 0.500000
vt 0.875000 0.500000
vt 0.875000 0.750000
vt 0.625000 0.750000
vt 0.375000 0.750000
vt 0.625000 1.000000
vt 0.375000 1.000000
vt 0.375000 0.000000
vt 0.625000 0.000000
vt 0.625000 0.250000
vt 0.375000 0.250000
vt 0.125000 0.500000
vt 0.375000 0.500000
vt 0.125000 0.750000
vt 0.625000 0.500000
vt 0.875000 0.500000
vt 0.875000 0.750000
vt 0.625000 0.750000
vt 0.375000 0.750000
vt 0.625000 1.000000
vt 0.375000 1.000000
vt 0.375000 0.000000
vt 0.625000 0.000000
vt 0.625000 0.250000
vt 0.375000 0.250000
vt 0.125000 0.500000
vt 0.375000 0.500000
vt 0.125000 0.750000
vt 0.625000 0.500000
vt 0.875000 0.500000
vt 0.875000 0.750000
vt 0.625000 0.750000
vt 0.375000 0.750000
vt 0.625000 1.000000
vt 0.375000 1.000000
vt 0.375000 0.000000
vt 0.625000 0.000000
vt 0.625000 0.250000
vt 0.375000 0.250000
vt 0.125000 0.500000
vt 0.375000 0.500000
vt 0.125000 0.750000
vn 0.0000 1.0000 0.0000
vn 0.0000 0.0000 1.0000
vn -1.0000 0.0000 0.0000
vn 0.0000 -1.0000 0.0000
vn 1.0000 0.0000 0.0000
vn 0.0000 0.0000 -1.0000
usemtl Material
s off
f 27/40/22 31/41/22 33/42/22 29/43/22
f 30/44/23 29/43/23 33/45/23 34/46/23
f 34/47/24 33/48/24 31/49/24 32/50/24
f 32/51/25 28/52/25 30/44/25 34/53/25
f 28/52/26 27/40/26 29/43/26 30/44/26
f 32/50/27 31/49/27 27/40/27 28/52/27
f 35/54/22 39/55/22 41/56/22 37/57/22
f 38/58/23 37/57/23 41/59/23 42/60/23
f 42/61/24 41/62/24 39/63/24 40/64/24
f 40/65/25 36/66/25 38/58/25 42/67/25
f 36/66/26 35/54/26 37/57/26 38/58/26
f 40/64/27 39/63/27 35/54/27 36/66/27
f 43/68/22 47/69/22 49/70/22 45/71/22
f 46/72/26 45/71/26 49/73/26 50/74/26
f 50/75/23 49/76/23 47/77/23 48/78/23
f 48/79/25 44/80/25 46/72/25 50/81/25
f 44/80/27 43/68/27 45/71/27 46/72/27
f 48/78/24 47/77/24 43/68/24 44/80/24
f 51/82/22 55/83/22 57/84/22 53/85/22
f 54/86/26 53/85/26 57/87/26 58/88/26
f 58/89/23 57/90/23 55/91/23 56/92/23
f 56/93/25 52/94/25 54/86/25 58/95/25
f 52/94/27 51/82/27 53/85/27 54/86/27
f 56/92/24 55/91/24 51/82/24 52/94/24
f 59/96/22 63/97/22 65/98/22 61/99/22
f 62/100/23 61/99/23 65/101/23 66/102/23
f 66/103/24 65/104/24 63/105/24 64/106/24
f 64/107/25 60/108/25 62/100/25 66/109/25
f 60/108/26 59/96/26 61/99/26 62/100/26
f 64/106/27 63/105/27 59/96/27 60/108/27
